 <svg version="1.0" xmlns="http://www.w3.org/2000/svg"  width="900.000000pt" height="876.000000pt" viewBox="0 0 900.000000 876.000000"  preserveAspectRatio="xMidYMid meet">  <g transform="translate(0.000000,876.000000) scale(0.100000,-0.100000)" fill="#fedd00" stroke="none"> <path d="M4150 8553 c-341 -20 -647 -70 -960 -157 -113 -32 -145 -41 -155 -47 -5 -4 -25 -10 -43 -14 -18 -4 -45 -13 -60 -21 -15 -8 -34 -14 -43 -14 -15 0 -65 -18 -114 -40 -11 -5 -58 -25 -105 -44 -263 -107 -560 -265 -780 -415 -111 -75 -155 -106 -160 -111 -3 -3 -34 -28 -70 -55 -250 -188 -573 -500 -741 -715 -23 -30 -48 -61 -55 -70 -24 -29 -69 -88 -84 -110 -8 -13 -33 -48 -55 -79 -23 -31 -58 -85 -80 -121 -21 -36 -43 -66 -47 -68 -4 -2 -8 -9 -8 -16 0 -6 -12 -29 -27 -51 -43 -63 -181 -330 -233 -450 -8 -17 -30 -69 -60 -140 -14 -34 -68 -189 -75 -215 -3 -14 -10 -34 -15 -45 -8 -19 -20 -61 -56 -190 -90 -328 -123 -612 -123 -1045 0 -404 27 -662 102 -965 43 -172 71 -263 138 -445 37 -101 54 -145 89 -225 41 -95 142 -295 181 -361 27 -45 49 -85 49 -89 0 -3 11 -21 25 -39 14 -18 25 -37 25 -42 0 -6 7 -19 15 -29 8 -11 40 -56 70 -100 96 -142 123 -179 144 -205 11 -14 24 -30 28 -35 28 -37 93 -116 119 -145 178 -200 293 -319 410 -420 84 -74 218 -183 289 -237 158 -119 457 -313 483 -313 6 0 12 -3 14 -7 2 -5 32 -23 68 -41 36 -19 76 -40 90 -47 23 -13 218 -105 265 -125 146 -64 350 -138 495 -180 41 -12 86 -25 100 -30 32 -10 141 -37 205 -51 28 -5 82 -17 120 -25 39 -8 106 -19 150 -25 44 -6 96 -15 115 -20 76 -21 281 -33 615 -35 193 -1 377 2 410 6 33 5 103 14 155 19 241 27 536 85 738 145 200 61 229 70 238 79 4 4 14 7 23 7 9 0 28 6 43 14 15 8 40 17 57 21 17 4 33 11 36 16 4 5 13 9 21 9 13 0 38 10 129 50 142 63 483 238 515 265 8 6 23 15 33 18 37 13 337 220 432 298 123 101 228 191 265 226 43 41 44 43 27 60 -12 12 -21 15 -31 8 -7 -6 -40 -30 -74 -55 -33 -25 -70 -52 -82 -60 -12 -8 -28 -20 -34 -25 -6 -6 -29 -22 -51 -35 -22 -13 -46 -30 -53 -37 -7 -7 -17 -13 -21 -13 -5 0 -39 -20 -77 -45 -37 -25 -72 -45 -76 -45 -5 0 -26 -11 -49 -25 -45 -29 -248 -132 -324 -165 -27 -11 -59 -25 -70 -30 -11 -5 -45 -19 -75 -31 -30 -12 -69 -28 -87 -35 -17 -8 -38 -14 -46 -14 -9 0 -18 -4 -21 -9 -4 -5 -24 -12 -46 -16 -22 -4 -42 -10 -45 -15 -3 -4 -22 -11 -42 -15 -21 -4 -42 -10 -48 -15 -5 -4 -32 -13 -60 -19 -27 -7 -77 -19 -110 -27 -158 -40 -281 -65 -415 -84 -36 -6 -95 -14 -131 -20 -151 -22 -483 -32 -706 -21 -120 6 -245 16 -278 21 -33 5 -94 14 -135 19 -129 17 -284 48 -425 86 -33 9 -76 20 -95 25 -60 13 -335 108 -405 139 -11 5 -45 19 -75 31 -83 33 -356 169 -428 212 -34 21 -66 38 -71 38 -5 0 -16 6 -23 13 -7 7 -42 31 -78 52 -36 22 -69 43 -75 47 -5 5 -64 48 -130 96 -66 49 -140 105 -165 126 -25 20 -65 53 -90 74 -76 62 -362 352 -442 448 -42 50 -110 138 -152 195 -42 57 -80 109 -84 114 -4 6 -32 51 -62 100 -29 50 -56 92 -59 95 -22 19 -250 481 -251 508 -1 4 -9 25 -20 47 -11 22 -19 45 -20 51 0 7 -7 25 -15 40 -8 16 -15 37 -15 46 0 9 -4 19 -9 22 -5 4 -12 25 -16 49 -4 23 -11 47 -15 52 -4 6 -13 33 -20 60 -6 28 -18 77 -27 110 -23 92 -43 191 -58 287 -7 48 -16 91 -18 95 -3 5 -13 117 -22 248 -15 208 -16 270 -5 460 6 121 16 245 21 275 5 30 16 96 24 145 19 116 32 175 85 385 17 70 101 314 111 325 5 5 9 15 9 23 0 14 5 26 67 162 46 101 121 246 150 292 12 21 23 41 23 45 0 4 11 23 23 42 13 20 55 83 92 141 58 89 106 158 142 205 76 98 126 159 163 200 265 288 394 407 643 592 21 15 43 33 50 38 24 20 283 187 307 199 8 4 42 22 75 41 55 32 262 136 310 155 11 4 51 22 89 39 37 17 73 31 80 31 6 0 23 7 38 14 16 8 58 24 95 36 38 12 77 26 88 30 48 20 197 63 310 90 231 55 307 68 580 101 115 14 723 14 835 0 281 -34 456 -67 675 -125 97 -26 349 -108 390 -126 11 -5 61 -26 110 -45 50 -20 117 -50 151 -66 33 -16 66 -29 72 -29 7 0 12 -4 12 -10 0 -5 6 -10 13 -10 6 0 23 -6 37 -13 124 -65 335 -191 430 -256 67 -45 301 -220 310 -230 3 -4 34 -31 70 -61 35 -30 115 -104 178 -165 62 -60 120 -111 127 -113 7 -2 16 6 20 18 5 15 -2 31 -27 58 -18 21 -53 62 -78 92 -300 362 -768 745 -1203 986 -74 41 -320 163 -368 183 -32 13 -88 37 -154 65 -16 8 -52 22 -80 31 -27 10 -54 22 -59 27 -6 4 -19 8 -29 8 -10 0 -33 6 -50 14 -18 8 -66 24 -107 36 -41 12 -84 25 -95 30 -20 8 -54 18 -170 46 -372 92 -735 134 -1135 132 -118 -1 -240 -3 -270 -5z"/> <path d="M4978 7785 c-3 -3 -72 -12 -154 -20 -156 -15 -273 -33 -386 -60 -38 -8 -96 -22 -130 -29 -35 -8 -76 -18 -93 -24 -16 -5 -57 -17 -90 -27 -33 -9 -67 -20 -75 -24 -9 -5 -31 -12 -50 -16 -19 -4 -41 -11 -50 -15 -8 -5 -37 -16 -65 -25 -27 -10 -63 -23 -80 -31 -16 -7 -69 -29 -117 -49 -134 -57 -468 -231 -488 -255 -3 -3 -23 -17 -45 -30 -22 -13 -42 -27 -45 -30 -3 -3 -23 -17 -45 -30 -41 -25 -43 -27 -84 -60 -13 -11 -27 -20 -30 -20 -3 0 -22 -14 -41 -30 -19 -16 -39 -33 -45 -38 -59 -45 -118 -94 -153 -127 -24 -22 -48 -41 -53 -43 -13 -5 -11 -38 4 -50 10 -9 93 44 182 116 62 50 418 245 550 302 28 11 59 25 70 31 45 21 177 67 270 95 33 9 67 21 75 25 8 5 38 13 65 19 28 7 77 18 110 27 101 25 189 41 425 75 41 5 190 13 330 15 253 5 384 -2 595 -32 139 -20 214 -35 435 -90 103 -25 340 -108 446 -155 115 -52 336 -164 374 -190 8 -6 29 -18 45 -28 187 -107 425 -293 605 -471 259 -256 370 -400 562 -729 39 -67 113 -220 153 -317 9 -22 20 -49 25 -60 4 -11 18 -49 30 -85 12 -36 26 -74 30 -85 13 -31 56 -200 76 -300 89 -440 79 -905 -29 -1340 -25 -97 -88 -298 -107 -340 -5 -11 -18 -42 -30 -70 -12 -27 -28 -66 -37 -85 -28 -64 -83 -174 -113 -225 -16 -27 -34 -60 -40 -73 -5 -12 -14 -28 -20 -35 -6 -6 -40 -56 -75 -110 -125 -189 -224 -309 -414 -497 -165 -164 -171 -168 -347 -300 -138 -102 -237 -169 -299 -201 -16 -8 -70 -38 -120 -65 -96 -53 -170 -89 -250 -124 -27 -12 -64 -28 -82 -36 -17 -8 -38 -14 -46 -14 -9 0 -18 -4 -22 -9 -3 -5 -20 -13 -37 -17 -18 -3 -39 -10 -48 -14 -21 -11 -92 -35 -180 -59 -41 -12 -88 -26 -105 -30 -16 -5 -46 -12 -65 -16 -19 -3 -46 -10 -60 -16 -26 -9 -76 -18 -260 -44 -197 -29 -285 -34 -515 -34 -267 0 -383 10 -667 58 -130 21 -469 114 -520 142 -10 5 -23 9 -29 9 -6 0 -25 6 -42 14 -18 8 -77 33 -132 56 -88 37 -210 95 -270 128 -63 35 -251 147 -255 152 -3 3 -23 17 -45 30 -22 13 -44 28 -50 32 -5 5 -41 32 -80 60 -59 43 -167 130 -185 148 -3 3 -41 37 -85 75 -44 39 -92 85 -108 103 -31 34 -61 42 -71 17 -12 -31 221 -282 467 -501 121 -109 337 -265 512 -370 93 -55 378 -200 470 -238 22 -10 48 -21 57 -26 10 -6 23 -10 30 -10 7 -1 31 -9 53 -20 22 -11 47 -19 55 -20 9 0 20 -4 25 -8 6 -5 44 -18 85 -31 41 -13 84 -26 95 -31 20 -8 50 -17 170 -46 462 -115 969 -146 1455 -89 205 24 336 50 600 118 73 19 293 95 328 113 15 7 33 14 40 14 7 0 20 4 30 10 9 5 35 17 57 26 95 40 242 110 323 153 52 28 252 149 283 170 20 15 47 33 59 41 40 26 214 156 230 171 8 8 38 32 65 54 176 139 460 442 586 625 13 19 26 37 29 40 7 7 92 137 120 185 14 22 28 45 33 50 21 23 136 246 177 340 12 28 27 64 35 80 31 69 45 106 83 220 74 219 110 370 136 555 8 56 16 84 24 83 18 -4 17 864 0 869 -8 3 -18 40 -25 89 -12 89 -31 184 -56 284 -8 33 -20 80 -26 105 -6 25 -15 54 -20 65 -4 11 -18 52 -30 90 -13 39 -29 84 -37 102 -8 17 -14 36 -14 42 0 6 -4 19 -10 29 -5 9 -17 35 -26 57 -25 59 -83 187 -95 208 -5 10 -24 44 -40 75 -33 60 -157 270 -171 287 -4 6 -37 51 -73 100 -133 185 -189 250 -384 445 -153 152 -258 243 -416 361 -83 62 -314 212 -370 241 -210 108 -335 169 -405 197 -47 19 -98 40 -115 47 -16 7 -82 29 -145 50 -63 20 -124 40 -135 44 -91 37 -458 112 -635 130 -52 6 -129 15 -170 20 -77 10 -602 14 -612 5z"/> <path d="M4655 6310 c-11 -5 -32 -9 -48 -9 -39 -1 -158 -45 -225 -82 -89 -50 -203 -172 -245 -260 -53 -111 -107 -230 -107 -236 0 -2 -11 -30 -26 -61 -14 -31 -31 -72 -39 -90 -8 -18 -21 -47 -29 -65 -8 -17 -21 -48 -30 -67 -37 -88 -59 -138 -77 -177 -10 -24 -28 -62 -38 -85 -11 -24 -29 -65 -41 -93 -11 -27 -25 -59 -30 -70 -5 -11 -18 -42 -30 -70 -12 -27 -25 -59 -30 -70 -5 -11 -19 -42 -31 -70 -12 -27 -32 -73 -45 -101 -13 -28 -24 -53 -24 -57 0 -3 -16 -40 -36 -84 -19 -43 -40 -89 -46 -103 -5 -14 -16 -38 -23 -55 -14 -31 -27 -61 -65 -150 -12 -27 -32 -72 -46 -98 -13 -27 -24 -53 -24 -59 0 -5 -16 -44 -36 -86 -38 -83 -42 -91 -74 -167 -12 -27 -25 -59 -30 -70 -20 -46 -55 -125 -85 -195 -18 -41 -45 -102 -59 -135 -42 -94 -44 -97 -66 -150 -12 -27 -25 -59 -30 -70 -5 -11 -19 -42 -30 -70 -12 -27 -33 -73 -46 -102 -13 -28 -24 -54 -24 -57 0 -5 -32 -78 -75 -171 -8 -16 -23 -52 -35 -80 -62 -146 -61 -143 -99 -228 -37 -81 -37 -87 -11 -115 l21 -22 529 0 528 0 26 31 c14 17 26 37 26 45 0 8 4 22 10 32 13 23 50 110 50 117 0 3 11 28 25 57 14 28 25 57 25 62 0 6 7 25 16 41 9 17 25 53 35 80 11 28 24 59 29 70 5 11 18 43 30 70 12 28 25 59 30 70 5 11 18 43 30 70 12 28 25 59 30 70 4 11 24 61 45 110 20 50 40 99 45 110 5 11 18 43 30 70 12 28 25 59 30 70 11 24 40 93 65 155 10 25 29 68 42 97 12 28 23 55 23 58 0 5 23 59 50 120 5 11 26 61 45 110 46 115 64 156 75 177 6 10 10 23 10 28 0 11 33 91 50 122 6 10 10 23 10 30 1 7 9 31 20 53 11 22 19 47 20 56 0 8 4 19 8 25 5 5 19 38 32 74 13 36 27 69 32 75 4 5 8 16 8 25 0 8 7 28 15 44 8 15 15 33 15 40 0 6 6 22 13 36 7 14 21 48 31 75 10 28 24 64 31 80 7 17 22 57 35 90 12 33 28 74 36 92 8 17 14 37 14 45 0 8 4 18 8 23 5 6 19 39 32 75 25 74 47 127 60 152 6 10 10 23 10 30 1 7 9 31 20 53 11 22 19 47 20 56 0 8 4 19 8 25 5 5 19 38 32 74 13 36 27 69 32 75 4 5 8 15 8 23 0 8 6 28 14 45 34 77 76 191 76 207 0 10 -19 33 -42 51 -24 19 -45 36 -48 40 -9 11 -113 64 -160 82 -97 35 -264 56 -305 37z"/> <path d="M5468 5509 c-10 -17 -18 -35 -18 -41 0 -5 -6 -24 -14 -41 -14 -31 -64 -161 -102 -262 -10 -27 -24 -61 -31 -75 -7 -14 -13 -32 -13 -41 0 -8 -4 -19 -8 -25 -5 -5 -20 -38 -32 -74 -13 -36 -30 -76 -37 -90 -7 -14 -13 -33 -13 -42 0 -9 -4 -20 -10 -23 -5 -3 -10 -14 -10 -23 0 -9 -6 -28 -13 -42 -7 -14 -21 -47 -31 -75 -36 -100 -60 -160 -68 -170 -4 -5 -8 -15 -8 -23 0 -8 -6 -28 -14 -45 -8 -18 -24 -59 -37 -92 -13 -33 -27 -64 -31 -70 -11 -12 -10 -51 1 -73 10 -17 47 -99 62 -137 12 -29 49 -117 59 -140 5 -11 18 -42 30 -70 12 -27 25 -59 30 -70 5 -11 25 -60 45 -110 20 -49 48 -114 61 -143 13 -29 24 -55 24 -58 0 -4 17 -45 50 -119 5 -11 18 -42 30 -70 12 -27 25 -59 30 -70 5 -11 19 -45 31 -75 27 -69 46 -116 65 -157 18 -41 38 -87 59 -138 9 -22 22 -53 30 -70 7 -16 18 -41 23 -55 34 -80 54 -127 62 -145 36 -82 50 -115 50 -123 0 -4 9 -18 20 -30 l21 -22 528 0 528 0 23 25 c27 29 28 26 -75 249 -14 30 -25 57 -25 60 0 2 -14 35 -31 73 -41 92 -45 101 -69 158 -11 28 -25 57 -29 66 -5 9 -28 61 -51 115 -37 86 -62 143 -100 229 -5 11 -19 43 -30 70 -24 55 -44 100 -84 187 -14 31 -26 59 -26 62 0 2 -14 35 -31 73 -17 37 -37 84 -46 103 -8 19 -21 49 -28 65 -18 40 -57 128 -84 190 -12 28 -26 59 -31 70 -5 11 -18 43 -30 70 -12 28 -25 59 -30 70 -5 11 -18 43 -30 70 -25 60 -38 89 -79 176 -17 37 -31 69 -31 72 0 3 -14 36 -31 74 -17 37 -37 84 -46 103 -21 50 -37 86 -72 161 -17 37 -31 69 -31 72 0 3 -14 36 -31 74 -39 88 -44 98 -69 158 -36 85 -51 118 -81 181 -16 33 -29 66 -29 72 0 23 -25 12 -42 -19z"/> </g> </svg> 